# xmcd
#
# Track frame offsets: 
#        150
#        17520
#        35670
#        50162
#        64762
#        81570
#        95952
#        110837
#        123572
#        140462
#        152802
#        167987
#        187337
#        204505
#        215552
#        230000
#        252647
#
# Disc length: 3637 seconds
#
# Revision: 4
# Processed by: cddbd v1.5.2PL0 Copyright (c) Steve Scherf et al.
# Submitted via: ExactAudioCopyFreeDBPlugin 1.0
#
DISCID=150e3311
DTITLE=John Denver - Spirit
DYEAR=2003
DGENRE=other
TTITLE0=Come And Let Me Look In Your Eyes
TTITLE1=Eli's Song
TTITLE2=Wrangle Mountain Song
TTITLE3=Hitchhiker
TTITLE4=In The Grand Way
TTITLE5=Polka Dots And Moonbeams
TTITLE6=It Makes Me Giggle
TTITLE7=Baby, You Look Good To Me Tonight
TTITLE8=Like A Sad Song
TTITLE9=San Antonio Rose
TTITLE10=Pegasus
TTITLE11=The Wings That Fly Us Home
TTITLE12=Whose Garden Was This
TTITLE13=The Game Is Over
TTITLE14=Eleanor Rigby
TTITLE15=Old Folks
TTITLE16=Medley: Golden Slumber - Sweet Sweet Life - Tremble If You Mu
TTITLE16=st (Version II)
EXTD=
EXTT0=
EXTT1=
EXTT2=
EXTT3=
EXTT4=
EXTT5=
EXTT6=
EXTT7=
EXTT8=
EXTT9=
EXTT10=
EXTT11=
EXTT12=
EXTT13=
EXTT14=
EXTT15=
EXTT16=
PLAYORDER=
